<svg width="1040" height="172" viewBox="0 0 1040 172" fill="none" xmlns="http://www.w3.org/2000/svg">
<path d="M0 58.75L51.5 8.25H124L51.5 81.25V162.25H0V58.75Z" fill="#0F9F6E"/>
<path d="M139.5 90.75V8.75H190.5V112.25L139.5 162.75H67.5L139.5 90.75Z" fill="#FFC857"/>
<path d="M260.234 104.894C264.025 107.035 267.86 108.975 271.74 110.714C275.664 112.409 279.722 113.858 283.915 115.062C288.107 116.222 292.499 117.113 297.093 117.738C301.731 118.362 306.659 118.674 311.876 118.674C318.165 118.674 323.516 118.273 327.931 117.47C332.346 116.623 335.936 115.486 338.701 114.059C341.511 112.587 343.54 110.848 344.789 108.841C346.082 106.834 346.729 104.649 346.729 102.285C346.729 98.4945 345.145 95.5065 341.979 93.3213C338.813 91.0915 333.929 89.9766 327.329 89.9766C324.43 89.9766 321.375 90.1772 318.165 90.5786C314.954 90.9354 311.698 91.3368 308.398 91.7827C305.142 92.2287 301.909 92.6523 298.698 93.0537C295.532 93.4105 292.544 93.5889 289.734 93.5889C285.052 93.5889 280.548 92.9868 276.222 91.7827C271.94 90.5786 268.127 88.7725 264.783 86.3643C261.483 83.9561 258.851 80.9458 256.889 77.3335C254.927 73.7212 253.946 69.5068 253.946 64.6904C253.946 61.8363 254.325 59.0044 255.083 56.1948C255.886 53.3853 257.134 50.7095 258.829 48.1675C260.568 45.5809 262.798 43.195 265.519 41.0098C268.239 38.7799 271.517 36.8623 275.352 35.2568C279.232 33.6514 283.692 32.4027 288.731 31.5107C293.815 30.5742 299.59 30.106 306.057 30.106C310.739 30.106 315.444 30.3735 320.171 30.9087C324.899 31.3993 329.492 32.1128 333.952 33.0493C338.456 33.9858 342.782 35.123 346.929 36.4609C351.077 37.7542 354.934 39.2036 358.502 40.8091L349.204 57.9341C346.26 56.6408 343.094 55.459 339.705 54.3887C336.315 53.2738 332.77 52.3149 329.068 51.5122C325.367 50.7095 321.532 50.0851 317.562 49.6392C313.638 49.1486 309.624 48.9033 305.521 48.9033C299.679 48.9033 294.863 49.327 291.072 50.1743C287.326 51.0216 284.338 52.1143 282.108 53.4521C279.879 54.7454 278.318 56.2171 277.426 57.8672C276.578 59.4727 276.155 61.0781 276.155 62.6836C276.155 65.8053 277.56 68.3696 280.369 70.3765C283.179 72.3387 287.46 73.3198 293.213 73.3198C295.532 73.3198 298.185 73.1637 301.173 72.8516C304.206 72.4948 307.372 72.1157 310.672 71.7144C314.017 71.313 317.406 70.9562 320.84 70.644C324.319 70.2873 327.686 70.1089 330.941 70.1089C337.096 70.1089 342.536 70.8001 347.264 72.1826C352.035 73.5651 356.027 75.5496 359.238 78.1362C362.449 80.6782 364.879 83.7777 366.529 87.4346C368.179 91.0469 369.004 95.1051 369.004 99.6094C369.004 105.63 367.6 111.004 364.79 115.731C362.025 120.414 358.056 124.383 352.883 127.638C347.754 130.849 341.555 133.302 334.286 134.997C327.017 136.647 318.923 137.472 310.003 137.472C304.117 137.472 298.364 137.093 292.745 136.334C287.125 135.621 281.729 134.595 276.556 133.257C271.428 131.875 266.522 130.247 261.839 128.374C257.201 126.456 252.898 124.36 248.929 122.086L260.234 104.894ZM399.308 145.9C401.359 147.238 403.589 148.42 405.997 149.446C408.405 150.472 410.903 151.319 413.489 151.988C416.12 152.657 418.796 153.147 421.517 153.459C424.237 153.816 426.935 153.995 429.611 153.995C438.708 153.995 445.71 152.032 450.616 148.108C455.566 144.228 458.041 138.386 458.041 130.582V127.906C456.302 129.11 454.34 130.225 452.154 131.25C450.014 132.232 447.695 133.079 445.197 133.792C442.744 134.506 440.136 135.063 437.371 135.465C434.65 135.822 431.885 136 429.076 136C423.055 136 417.659 135.13 412.887 133.391C408.16 131.607 404.146 129.021 400.846 125.631C397.591 122.197 395.093 117.983 393.354 112.988C391.615 107.993 390.745 102.285 390.745 95.8633V57.0645H410.479V90.3779C410.479 99.9215 412.285 106.968 415.897 111.517C419.554 116.021 425.307 118.273 433.156 118.273C438.686 118.273 443.569 117.314 447.806 115.396C452.087 113.434 455.499 110.937 458.041 107.904V57.0645H477.842V126.969C477.842 134.506 476.771 141.039 474.631 146.569C472.49 152.144 469.368 156.76 465.266 160.417C461.207 164.073 456.213 166.794 450.281 168.578C444.35 170.406 437.616 171.32 430.079 171.32C422.721 171.32 415.853 170.54 409.476 168.979C403.098 167.418 397.256 165.3 391.949 162.624L399.308 145.9ZM503.462 57.0645H523.263V63.7539C528.526 60.766 533.543 58.6699 538.314 57.4658C543.131 56.2617 547.836 55.6597 552.429 55.6597C558.45 55.6597 564.024 56.5516 569.153 58.3354C574.281 60.0747 578.719 62.6836 582.465 66.1621C586.211 69.6406 589.132 73.9888 591.228 79.2065C593.369 84.3797 594.439 90.3779 594.439 97.2012V136H574.705V100.412C574.705 96.0863 574.081 92.2287 572.832 88.8394C571.628 85.4054 569.866 82.529 567.547 80.21C565.273 77.8464 562.486 76.0625 559.186 74.8584C555.93 73.6097 552.273 72.9854 548.215 72.9854C546.074 72.9854 543.867 73.2083 541.592 73.6543C539.362 74.1003 537.155 74.7469 534.97 75.5942C532.829 76.397 530.755 77.4227 528.749 78.6714C526.742 79.8755 524.913 81.258 523.263 82.8188V136H503.462V57.0645ZM614.039 96.7329C614.039 90.9354 615.087 85.5392 617.183 80.5444C619.324 75.505 622.423 71.1569 626.481 67.5C630.584 63.7985 635.579 60.8997 641.466 58.8037C647.397 56.7077 654.153 55.6597 661.735 55.6597C665.035 55.6597 668.357 55.8604 671.702 56.2617C675.047 56.6631 678.258 57.2428 681.335 58.001C684.457 58.7145 687.378 59.5841 690.098 60.6099C692.819 61.591 695.182 62.6836 697.189 63.8877L688.024 78.8052C683.699 76.7983 679.596 75.3267 675.716 74.3901C671.881 73.4536 667.978 72.9854 664.009 72.9854C659.46 72.9854 655.38 73.5874 651.768 74.7915C648.155 75.951 645.078 77.6011 642.536 79.7417C640.039 81.8377 638.121 84.3351 636.783 87.2339C635.49 90.0881 634.843 93.2098 634.843 96.5991C634.843 99.9884 635.535 103.132 636.917 106.031C638.344 108.885 640.329 111.361 642.871 113.457C645.457 115.508 648.557 117.136 652.169 118.34C655.826 119.499 659.884 120.079 664.344 120.079C669.249 120.079 673.865 119.388 678.191 118.005C682.561 116.623 686.62 114.772 690.366 112.453L699.53 127.371C697.167 128.798 694.602 130.136 691.837 131.384C689.072 132.588 686.107 133.636 682.94 134.528C679.819 135.42 676.519 136.111 673.04 136.602C669.606 137.137 666.038 137.405 662.337 137.405C654.8 137.405 648.044 136.379 642.068 134.328C636.092 132.276 631.03 129.444 626.883 125.832C622.735 122.175 619.547 117.872 617.317 112.921C615.132 107.971 614.039 102.575 614.039 96.7329Z" fill="#0F9F6E"/>
<path d="M723.345 31.4438H744.55V117.403H805.357V136H723.345V31.4438ZM819.74 111.115C819.74 107.325 820.565 103.868 822.215 100.747C823.865 97.6248 826.34 94.9491 829.64 92.7192C832.94 90.4448 837.043 88.7056 841.949 87.5015C846.899 86.2528 852.652 85.6284 859.208 85.6284C864.069 85.6284 869.175 85.9852 874.526 86.6987C879.923 87.4123 885.475 88.5049 891.183 89.9766C890.96 87.4792 890.202 85.1825 888.909 83.0864C887.615 80.9458 885.809 79.1174 883.49 77.6011C881.216 76.0402 878.451 74.8361 875.195 73.9888C871.984 73.1414 868.327 72.7178 864.225 72.7178C861.995 72.7178 859.542 72.8516 856.866 73.1191C854.19 73.3867 851.425 73.7881 848.571 74.3232C845.717 74.8584 842.885 75.5273 840.076 76.3301C837.311 77.1328 834.724 78.0916 832.316 79.2065L826.295 62.9512C829.283 61.8809 832.472 60.8997 835.861 60.0078C839.295 59.1159 842.796 58.3577 846.364 57.7334C849.931 57.0645 853.499 56.5516 857.067 56.1948C860.635 55.8381 864.091 55.6597 867.436 55.6597C882.197 55.6597 893.168 59.4281 900.348 66.9648C907.528 74.5016 911.118 86.0521 911.118 101.616V136H891.317V128.575C889.265 129.779 887.013 130.916 884.561 131.986C882.152 133.057 879.521 133.993 876.667 134.796C873.813 135.599 870.736 136.223 867.436 136.669C864.18 137.16 860.724 137.405 857.067 137.405C850.913 137.405 845.494 136.736 840.812 135.398C836.174 134.06 832.294 132.209 829.172 129.846C826.05 127.482 823.687 124.717 822.081 121.551C820.52 118.34 819.74 114.861 819.74 111.115ZM840.611 110.446C840.611 111.74 840.945 112.988 841.614 114.192C842.283 115.352 843.354 116.4 844.825 117.336C846.297 118.228 848.17 118.964 850.444 119.544C852.763 120.079 855.551 120.347 858.806 120.347C862.285 120.347 865.652 120.035 868.907 119.41C872.163 118.786 875.195 117.961 878.005 116.935C880.814 115.909 883.356 114.728 885.631 113.39C887.905 112.052 889.801 110.669 891.317 109.242V105.764C888.284 104.916 885.274 104.203 882.286 103.623C879.343 103.043 876.511 102.597 873.791 102.285C871.115 101.928 868.573 101.683 866.165 101.549C863.801 101.416 861.727 101.349 859.943 101.349C856.242 101.349 853.165 101.594 850.712 102.084C848.259 102.575 846.275 103.244 844.758 104.091C843.242 104.894 842.172 105.853 841.547 106.968C840.923 108.083 840.611 109.242 840.611 110.446ZM936.805 25.022H956.606V64.4897C958.345 63.2856 960.397 62.1484 962.76 61.0781C965.124 60.0078 967.666 59.0713 970.386 58.2686C973.107 57.4658 975.916 56.8415 978.815 56.3955C981.714 55.9049 984.612 55.6597 987.511 55.6597C994.201 55.6597 1000.33 56.6408 1005.91 58.603C1011.53 60.5653 1016.34 63.3302 1020.36 66.8979C1024.37 70.4657 1027.49 74.7469 1029.72 79.7417C1032 84.6919 1033.13 90.1772 1033.13 96.1978C1033.13 102.486 1031.95 108.172 1029.59 113.256C1027.22 118.295 1023.95 122.621 1019.75 126.233C1015.61 129.801 1010.66 132.566 1004.9 134.528C999.195 136.446 992.997 137.405 986.307 137.405C983.453 137.405 980.621 137.226 977.812 136.87C975.047 136.513 972.371 136.022 969.784 135.398C967.242 134.774 964.834 134.038 962.56 133.19C960.33 132.299 958.345 131.34 956.606 130.314V136H936.805V25.022ZM956.606 111.182C958.613 112.788 960.731 114.148 962.961 115.263C965.191 116.378 967.465 117.292 969.784 118.005C972.103 118.719 974.444 119.254 976.808 119.611C979.172 119.923 981.468 120.079 983.698 120.079C988.247 120.079 992.283 119.477 995.806 118.273C999.374 117.024 1002.36 115.33 1004.77 113.189C1007.22 111.048 1009.1 108.529 1010.39 105.63C1011.68 102.731 1012.33 99.5871 1012.33 96.1978C1012.33 93.0314 1011.68 90.0435 1010.39 87.2339C1009.14 84.4243 1007.31 81.9715 1004.9 79.8755C1002.54 77.7349 999.664 76.0625 996.274 74.8584C992.93 73.6097 989.161 72.9854 984.969 72.9854C982.293 72.9854 979.618 73.2529 976.942 73.7881C974.266 74.2786 971.68 74.9922 969.182 75.9287C966.729 76.8652 964.41 78.0024 962.225 79.3403C960.084 80.6782 958.211 82.1722 956.606 83.8223V111.182Z" fill="#FFC857"/>
</svg>
